<svg width="56" height="56" viewBox="0 0 56 56" fill="none" xmlns="http://www.w3.org/2000/svg">
<path fill-rule="evenodd" clip-rule="evenodd" d="M46.3652 38.3046C46.8134 38.4455 47.2777 38.569 47.7586 38.6727C47.7599 38.6729 47.7612 38.6732 47.7626 38.6735C47.8637 38.6953 47.9657 38.7162 48.0683 38.7362C48.4606 38.8126 48.864 38.876 49.2779 38.9247C49.4899 38.9496 49.6428 39.1348 49.6236 39.3474C49.2911 43.0343 44.2778 50.9075 29.3969 51.3581C29.0607 51.3682 28.7195 51.3746 28.3732 51.3771C28.1336 51.3788 27.8916 51.3786 27.6471 51.3765M27.0566 51.3283C27.2311 51.3316 27.4042 51.3333 27.5764 51.3333L27.647 51.3332C27.6468 51.3618 27.6471 51.3765 27.6471 51.3765M27.0566 51.3283C26.8342 51.3242 26.6095 51.3173 26.3814 51.3078C13.2022 50.7517 6.18285 41.754 4.35101 32.382C2.83544 24.6283 4.321 18.13 5.22269 15.2118C5.30118 14.9578 5.37524 14.7309 5.44252 14.5327C5.6569 13.901 5.80235 13.5604 5.80235 13.5604L10.0936 15.1484C10.2708 14.6046 10.4622 14.0901 10.6655 13.6033C12.8117 8.4625 16.2814 6.41471 18.3683 5.61926C19.4222 5.21753 20.1235 5.13522 20.1235 5.13522L20.075 9.7486C20.075 9.7486 20.6739 8.99651 21.8427 8.0678C23.7291 6.56902 27.0998 4.61022 31.8333 4.61013C32.3618 4.61013 32.9073 4.63454 33.4695 4.68673C34.1208 4.74718 34.7946 4.84489 35.4908 4.98509L31.2696 10.111C31.2696 10.111 32.375 9.74732 34.051 9.48645C34.9881 9.34058 36.1036 9.22686 37.304 9.22686C39.9286 9.22686 42.959 9.77018 45.4193 11.7095C45.9056 12.0929 46.3696 12.5307 46.8038 13.0297L40.9495 15.4585C40.9495 15.4585 42.2752 15.5328 44.0487 16.0674C46.5836 16.8313 50.0335 18.5354 51.8353 22.306C52.0931 22.8456 52.3172 23.4275 52.5 24.055L46.1688 24.064C46.1688 24.064 46.4823 24.6717 46.8065 25.8131C47.1991 27.1957 47.6075 29.3613 47.4936 32.1789C47.4501 33.2506 47.3312 34.417 47.1072 35.67C47.1072 35.67 47.0416 36.0583 46.8656 36.7125C46.7572 37.1154 46.6068 37.6191 46.404 38.1951C46.3913 38.2312 46.3783 38.2679 46.3652 38.3046M49.4821 37.1866C49.1763 37.1506 48.8776 37.1058 48.5859 37.0529L49.4821 37.1866ZM48.5859 37.0529C48.6107 36.9583 48.6334 36.8691 48.654 36.7856C48.7146 36.5405 48.7577 36.3438 48.7864 36.2039C48.8008 36.1338 48.8115 36.0779 48.8191 36.0372C48.821 36.0271 48.8227 36.018 48.8242 36.0099C48.8257 36.0014 48.827 35.9939 48.8282 35.9874L48.8298 35.9781C48.8301 35.9763 48.8305 35.9744 48.8308 35.9726C49.0686 34.6417 49.1955 33.3979 49.2422 32.2499C49.3525 29.5219 49.0073 27.341 48.6178 25.8105L52.5025 25.805C53.0528 25.8042 53.5707 25.5446 53.9006 25.1042C54.2305 24.6638 54.3341 24.0938 54.1802 23.5655C52.8124 18.8708 49.4392 16.3951 46.5457 15.1242C46.5092 15.1082 46.4729 15.0924 46.4365 15.0767L47.4744 14.6462C47.9943 14.4305 48.3787 13.9779 48.5075 13.43C48.6362 12.882 48.4935 12.3056 48.124 11.881C45.0192 8.31295 40.6888 7.47686 37.304 7.47686C36.7322 7.47686 36.1793 7.5005 35.6536 7.54027L36.8417 6.09755C37.2326 5.62297 37.3457 4.97812 37.1397 4.39885C36.9338 3.81958 36.439 3.39087 35.8363 3.26952C34.4263 2.98563 33.0912 2.86013 31.8333 2.86013C27.5912 2.86021 24.3259 4.28543 22.1271 5.71105C22.0383 5.76866 21.9511 5.8263 21.8657 5.88385L21.8734 5.15361C21.8787 4.65077 21.6674 4.16995 21.2934 3.83377C20.9194 3.49758 20.4189 3.33852 19.9194 3.39715L20.1235 5.13522C19.9194 3.39715 19.9173 3.39741 19.9173 3.39741L19.9149 3.39769L19.9097 3.39832L19.8973 3.39986C19.8882 3.40103 19.8774 3.40245 19.8648 3.40418C19.8397 3.40763 19.8078 3.41227 19.7695 3.41835C19.6929 3.43051 19.5903 3.44844 19.4648 3.47411C19.2138 3.52542 18.8695 3.60791 18.4548 3.73763C17.6263 3.99681 16.509 4.447 15.293 5.21936C13.1285 6.59409 10.7194 8.94796 9.06236 12.9008L6.40972 11.9191C5.53461 11.5953 4.55933 12.015 4.19292 12.8732L5.80235 13.5604C4.19292 12.8732 4.19242 12.8743 4.19242 12.8743L4.19046 12.879L4.18674 12.8878L4.17561 12.9145C4.16658 12.9362 4.15438 12.966 4.1393 13.0036C4.10915 13.0787 4.06744 13.185 4.01644 13.3212C3.91445 13.5933 3.77517 13.9849 3.61673 14.4843C3.30004 15.4824 2.90564 16.9148 2.58001 18.6878C1.92956 22.2294 1.54767 27.1625 2.63351 32.7177C4.58778 42.7161 12.1604 52.4593 26.3077 53.0562L26.3082 53.0562C26.6268 53.0696 26.9401 53.078 27.2504 53.0814C27.373 53.1098 27.5007 53.1254 27.6318 53.1265C44.4625 53.2706 50.9131 44.5285 51.3665 39.505C51.4726 38.3319 50.6193 37.3205 49.4821 37.1866" fill="white"/>
<path d="M46.404 38.1955C44.8433 42.6257 40.1718 51.3333 27.5763 51.3333C27.1849 51.3333 26.7884 51.3249 26.3814 51.3078C13.2022 50.7517 6.18283 41.754 4.35099 32.3821C2.28311 21.8027 5.80234 13.5604 5.80234 13.5604L10.0936 15.1485C13.0873 5.96121 20.1235 5.13528 20.1235 5.13528L20.075 9.74866C20.075 9.74866 24.1668 4.61034 31.8333 4.6102C32.974 4.6102 34.1934 4.72392 35.4908 4.98516L31.2696 10.1111C31.2696 10.1111 33.9568 9.22693 37.304 9.22693C40.4474 9.22693 44.1728 10.0063 46.8038 13.0298L40.9495 15.4585C40.9495 15.4585 50.1458 15.9744 52.5 24.0551L46.1688 24.0641C46.1688 24.0641 47.7015 27.0351 47.4936 32.179C47.4501 33.2507 47.3312 34.4171 47.1071 35.6701C47.1071 35.6701 46.936 36.6841 46.404 38.1952" fill="#F83400"/>
<path d="M26.7368 21.9003C31.5052 16.3557 38.6895 17.2087 38.6895 17.2087C38.6895 17.2087 35.5289 21.577 35.7718 28.4462L31.4398 35.2592L5.60464 33.9873C13.204 13.5828 27.4701 13.4887 27.4701 13.4887C26.4863 16.7984 26.7368 21.9003 26.7368 21.9003Z" fill="url(#paint0_linear_29039_19950)"/>
<path d="M27.6468 51.3766C27.6468 51.3766 27.6498 47.1279 28.6921 42.8723C28.3395 42.7674 27.9936 42.6136 27.6651 42.404C25.9215 41.2917 25.2926 38.9411 26.2505 37.1082C27.2424 35.2101 29.5162 34.4331 31.4398 35.2591C32.5396 33.007 33.9519 30.6959 35.7718 28.446C35.7718 28.446 39.455 37.768 49.2779 38.9248C49.4899 38.9497 49.6428 39.1349 49.6236 39.3475C49.2784 43.1753 43.8877 51.5157 27.6468 51.3766Z" fill="#FCCEB0"/>
<path d="M33.8571 39.3608C34.0179 39.3611 34.148 39.491 34.1481 39.6518C34.1486 40.1048 34.3305 40.5104 34.6276 40.8081C34.9253 41.1049 35.3304 41.2862 35.7829 41.2866C36.2358 41.2863 36.6415 41.105 36.9392 40.8081C37.2362 40.5103 37.4174 40.1046 37.4177 39.6518C37.4178 39.4909 37.5487 39.3609 37.7097 39.3608H38.656C38.7332 39.3609 38.8074 39.3912 38.862 39.4458C38.9166 39.5004 38.9469 39.5746 38.947 39.6518C38.9467 41.3993 37.5306 42.8157 35.7829 42.8159C34.0356 42.8155 32.6192 41.3992 32.6189 39.6518C32.6189 39.5746 32.6502 39.5004 32.7048 39.4458C32.7595 39.3911 32.8336 39.3608 32.9108 39.3608H33.8571ZM35.5075 42.5112L35.7829 42.5249C35.6863 42.5248 35.5909 42.5195 35.4968 42.5102C35.5004 42.5106 35.5039 42.5108 35.5075 42.5112ZM35.7829 42.5249C35.88 42.5248 35.9764 42.5196 36.071 42.5102C35.9764 42.5196 35.88 42.5248 35.7829 42.5249ZM35.2204 42.4692C35.2891 42.4828 35.359 42.4918 35.4294 42.5004C35.359 42.4918 35.2891 42.4828 35.2204 42.4692ZM36.1433 42.4995C36.211 42.491 36.2783 42.4823 36.3444 42.4692C36.2783 42.4823 36.211 42.491 36.1433 42.4995ZM34.948 42.3999C35.0076 42.418 35.0684 42.4325 35.1296 42.4467C35.0684 42.4325 35.0076 42.418 34.948 42.3999ZM36.4509 42.4438C36.5064 42.4306 36.5617 42.4172 36.6159 42.4008C36.5617 42.4172 36.5064 42.4306 36.4509 42.4438ZM34.697 42.31C34.7505 42.3319 34.8049 42.3518 34.8601 42.3706C34.8049 42.3518 34.7505 42.3319 34.697 42.31ZM36.7175 42.3657C36.7691 42.3479 36.8206 42.3306 36.8708 42.31C36.8206 42.3306 36.7691 42.3479 36.7175 42.3657ZM36.9782 42.2622C37.0257 42.2404 37.0728 42.2181 37.1189 42.1938C37.0728 42.2181 37.0257 42.2404 36.9782 42.2622ZM34.4538 42.1967C34.4954 42.2185 34.538 42.2385 34.5808 42.2583C34.538 42.2385 34.4954 42.2185 34.4538 42.1967ZM37.2116 42.142C37.2588 42.1149 37.3058 42.0877 37.3513 42.0581C37.3058 42.0877 37.2588 42.1149 37.2116 42.142ZM34.2116 42.0551C34.2578 42.0854 34.3053 42.1135 34.3532 42.1411C34.3053 42.1135 34.2578 42.0854 34.2116 42.0551ZM34.0065 41.9067C34.0444 41.9365 34.0834 41.9647 34.1228 41.9926C34.0834 41.9647 34.0444 41.9365 34.0065 41.9067ZM37.446 41.9917C37.4874 41.9622 37.5284 41.9324 37.5681 41.9008C37.5284 41.9324 37.4874 41.9622 37.446 41.9917ZM37.653 41.8305C37.6936 41.7957 37.7326 41.7592 37.7712 41.7221C37.7326 41.7592 37.6936 41.7957 37.653 41.8305ZM33.7946 41.7211C33.831 41.7561 33.8678 41.7906 33.906 41.8237C33.8678 41.7906 33.831 41.7561 33.7946 41.7211ZM33.6091 41.5249C33.6454 41.567 33.6827 41.608 33.7214 41.6479C33.6827 41.608 33.6454 41.567 33.6091 41.5249ZM37.8532 41.6401C37.8863 41.6057 37.9186 41.5707 37.9499 41.5346C37.9186 41.5707 37.8863 41.6057 37.8532 41.6401ZM33.4519 41.3256C33.48 41.3648 33.5088 41.4033 33.5388 41.4409C33.5088 41.4033 33.48 41.3648 33.4519 41.3256ZM38.029 41.4409C38.0627 41.3987 38.0944 41.3551 38.1257 41.311C38.0944 41.3551 38.0627 41.3987 38.029 41.4409ZM38.1814 41.2319C38.2139 41.1825 38.2446 41.1319 38.2741 41.0805C38.2446 41.1319 38.2139 41.1825 38.1814 41.2319ZM33.2976 41.0874C33.324 41.133 33.3508 41.1781 33.3796 41.2221C33.3508 41.1781 33.324 41.133 33.2976 41.0874ZM38.322 40.9956C38.3543 40.9346 38.3829 40.8716 38.4108 40.8081C38.3829 40.8716 38.3543 40.9346 38.322 40.9956ZM33.1745 40.8481C33.1972 40.8975 33.2195 40.9468 33.2448 40.9946C33.2195 40.9468 33.1972 40.8975 33.1745 40.8481ZM38.4343 40.7573C38.4605 40.6944 38.4828 40.6299 38.5046 40.5649C38.4828 40.6299 38.4605 40.6944 38.4343 40.7573ZM33.0632 40.5698C33.0833 40.6294 33.1038 40.6887 33.1276 40.7465C33.1038 40.6887 33.0833 40.6294 33.0632 40.5698ZM32.9899 40.31C33.0042 40.3708 33.0178 40.4314 33.0358 40.4907C33.0178 40.4314 33.0042 40.3708 32.9899 40.31ZM38.531 40.4907C38.551 40.4248 38.5664 40.3573 38.5817 40.2895C38.5664 40.3573 38.551 40.4248 38.531 40.4907ZM32.9333 39.9965C32.9313 39.9796 32.9272 39.9628 32.9255 39.9458V39.9438C32.9273 39.9615 32.9312 39.9789 32.9333 39.9965ZM38.656 39.6518C38.6559 39.847 38.6364 40.0379 38.5993 40.2221C38.6177 40.1309 38.6318 40.038 38.6413 39.9438C38.65 39.8573 38.6551 39.7697 38.656 39.6811C38.6561 39.6716 38.656 39.6614 38.656 39.6518ZM32.9333 39.9965C32.9424 40.0727 32.9535 40.1479 32.9685 40.2221C32.9535 40.1479 32.9424 40.0727 32.9333 39.9965Z" fill="#2E1710"/>
<path d="M47.1632 38.5321C47.1247 38.7113 47.1045 38.8991 47.1045 39.09C47.1045 40.2833 47.8985 41.2943 48.9854 41.6209C49.3988 40.6943 49.5772 39.9173 49.6242 39.3426C49.6457 39.1356 49.4884 38.9472 49.2815 38.9229C48.2572 38.7889 47.5872 38.6395 47.1632 38.5321Z" fill="#2E1710"/>
<defs>
<linearGradient id="paint0_linear_29039_19950" x1="35.3722" y1="18.7401" x2="17.2274" y2="31.2736" gradientUnits="userSpaceOnUse">
<stop stop-color="#F47665"/>
<stop offset="0.00736552" stop-color="#F47665"/>
<stop offset="0.659552" stop-color="#F83400"/>
<stop offset="1" stop-color="#F83400"/>
</linearGradient>
</defs>
</svg>
