<svg width="138" height="40" viewBox="0 0 138 40" fill="none" xmlns="http://www.w3.org/2000/svg">
<path d="M127.938 9.91016C133.333 9.91037 137.825 13.8318 137.802 20.8428C137.802 27.8539 133.31 31.7752 127.938 31.7754C124.611 31.7754 122.376 30.35 121.093 28.2109H120.998V39.999H115.579V10.5752H120.998V13.4756H121.093C122.376 11.3366 124.611 9.91016 127.938 9.91016ZM51.8359 13.4756H51.9307C53.2141 11.3366 55.449 9.91113 58.7764 9.91113C64.1712 9.91133 68.6633 13.8325 68.6396 20.8672C68.6396 27.8783 64.1475 31.8006 58.7764 31.8008C55.449 31.8008 53.2141 30.3744 51.9307 28.2354H51.8359V31.1348H46.3691V0H51.8359V13.4756ZM82.0439 9.93457C84.8247 9.93457 87.083 10.6241 89.1982 11.9551L89.2217 12.0498L86.9395 16.3994L86.8447 16.4229C85.5138 15.5911 83.9924 15.0449 82.1387 15.0449C78.764 15.0451 76.3165 17.3974 76.3164 20.8672C76.3164 24.3371 78.7639 26.6903 82.1387 26.6904C83.9925 26.6904 85.5138 26.1199 86.8447 25.2881L86.916 25.3115L89.2217 29.709L89.1982 29.7803C87.083 31.0875 84.8247 31.7998 82.0439 31.7998C75.4129 31.7998 70.707 27.4507 70.707 20.8672C70.7071 14.2838 75.413 9.93457 82.0439 9.93457ZM29.0195 22.1982C29.0195 25.4068 30.5406 26.7852 32.8936 26.7852C35.6029 26.7852 37.4325 25.0031 37.4326 20.4639V10.5762H42.8994V31.1348H37.5283V27.9502H37.4326C36.1968 30.1841 34.2483 31.7763 31.04 31.7764C26.8571 31.7764 23.4347 29.2336 23.4346 23.1494V10.5762H29.0195V22.1982ZM99.75 9.91016C103.077 9.91016 105.311 11.3366 106.595 13.4756H106.69V10.5752H112.109V31.1338H106.69V28.2109H106.595C105.311 30.3498 103.077 31.7754 99.75 31.7754C94.3788 31.7753 89.8867 27.8777 89.8867 20.8428C89.8868 13.8318 94.3788 9.9103 99.75 9.91016ZM5.4668 13.5234H5.53809C6.96404 11.242 9.19771 9.91126 12.2158 9.91113C16.684 9.91113 19.9639 12.4065 19.9639 18.4434V31.1348H14.498V19.7266C14.498 16.3992 12.9291 14.9736 10.2197 14.9736C7.46287 14.9737 5.46689 16.6369 5.4668 21.0811V31.1348H0V0H5.4668V13.5234ZM57.3975 15.0918C54.0939 15.0918 51.8361 17.3974 51.8359 20.8672C51.8359 24.3372 54.1176 26.6426 57.3975 26.6426C60.7011 26.6426 62.959 24.3134 62.959 20.8672C62.9589 17.3974 60.6772 15.0918 57.3975 15.0918ZM101.129 15.0918C97.8253 15.0918 95.5674 17.3972 95.5674 20.8672C95.5676 24.3369 97.8492 26.6426 101.129 26.6426C104.432 26.6425 106.69 24.3131 106.69 20.8672C106.69 17.3972 104.409 15.0919 101.129 15.0918ZM126.56 15.0918C123.256 15.0918 120.998 17.3972 120.998 20.8672C120.998 24.3369 123.28 26.6426 126.56 26.6426C129.863 26.6426 132.121 24.3132 132.121 20.8672C132.121 17.3972 129.839 15.0918 126.56 15.0918Z" fill="white"/>
</svg>
